<svg width="24" height="24" viewBox="0 0 24 24" fill="none" xmlns="http://www.w3.org/2000/svg">
<rect width="24" height="24" fill="#07981F"/>
<path d="M17.4569 10.8996V11.6696H16.6859V12.4411H17.4569V13.2126H18.2284V12.4411H18.9999V11.6696H18.2284V10.8996H17.4569ZM15.7069 10.8996H14.9349V11.6696H14.1634V12.4411H14.9349V13.2126H15.7064V12.4411H16.4779V11.6696H15.7064L15.7069 10.8996ZM13.8799 13.5126C13.5465 14.1053 13.0265 14.571 12.4009 14.8375C11.7753 15.104 11.0792 15.1562 10.4208 14.986C9.76248 14.8158 9.17886 14.4328 8.76077 13.8965C8.34269 13.3602 8.1136 12.7008 8.10916 12.0208C8.10471 11.3408 8.32516 10.6784 8.73619 10.1367C9.14723 9.59504 9.72579 9.20441 10.3819 9.02562C11.0379 8.84683 11.7347 8.88993 12.3637 9.14819C12.9928 9.40646 13.5188 9.86541 13.8599 10.4536L16.5549 8.90363C15.8722 7.7226 14.8186 6.80009 13.5577 6.27939C12.2969 5.75868 10.8993 5.66892 9.58221 6.02406C8.26509 6.3792 7.10211 7.15935 6.27392 8.24333C5.44573 9.32731 4.99868 10.6545 5.00222 12.0186C5.00576 13.3828 5.45968 14.7076 6.29348 15.7872C7.12728 16.8669 8.29429 17.641 9.61323 17.9893C10.9322 18.3376 12.3292 18.2406 13.5874 17.7134C14.8455 17.1861 15.8944 16.2582 16.5709 15.0736L13.8799 13.5126Z" fill="black"/>
</svg>
