<svg
  width="24"
  height="24"
  viewBox="0 0 24 24"
  fill="none"
  xmlns="http://www.w3.org/2000/svg"
>
  <rect width="24" height="24" fill="#07981F" />
  <g clip-path="url(#clip0_176_22)">
    <path
      d="M4.98608 4.19226C4.98608 4.29907 5.25667 7.43213 5.59134 11.1562C5.91888 14.8732 6.20371 18.0276 6.21083 18.1629L6.23219 18.405L9.11603 19.2025L11.9928 20L12.5695 19.8433C12.8828 19.7579 14.1717 19.4019 15.4391 19.053C17.4044 18.5118 17.7391 18.3979 17.7676 18.2768C17.8032 18.1059 19.0137 4.38451 19.0137 4.15665V4H4.98608V4.19226ZM16.4289 7.21851C16.4004 7.38941 16.2153 9.41166 16.0159 11.7259C15.8094 14.0329 15.6385 15.9413 15.6243 15.9555C15.5958 15.9911 12.0996 16.9595 11.9999 16.9595C11.9287 16.9595 10.0204 16.4397 8.71728 16.0694L8.35413 15.9626L8.26868 15.0227C8.22596 14.5029 8.16899 13.8763 8.14051 13.6271L8.09779 13.1856H8.98786C9.99187 13.1856 9.96339 13.1713 9.97051 13.7908C9.97051 13.9475 9.99187 14.1896 10.0132 14.332L10.056 14.5883L11.0315 14.8447L11.9999 15.101L12.9612 14.8447C13.4881 14.7023 13.9296 14.5812 13.9296 14.5812C13.9367 14.5741 13.9794 14.154 14.0221 13.6484C14.0649 13.1357 14.1147 12.6373 14.1361 12.5234L14.1717 12.3311H8.06219L8.02658 12.1673C8.00522 12.0819 7.9625 11.6689 7.93401 11.2417L7.88417 10.4798H14.2998L14.3426 9.99555C14.371 9.73209 14.4138 9.32621 14.4351 9.09835C14.4636 8.80641 14.4565 8.69248 14.3995 8.72808C14.3568 8.74944 12.8401 8.74944 11.0172 8.72096L7.70616 8.67824L7.66343 8.17267C7.63495 7.89497 7.59935 7.49622 7.57798 7.28972L7.53526 6.91945H16.4645L16.4289 7.21851Z"
      fill="black"
    />
  </g>
  <defs>
    <clipPath id="clip0_176_22">
      <rect width="16" height="16" fill="white" transform="translate(4 4)" />
    </clipPath>
  </defs>
</svg>
