<svg
  width="24"
  height="24"
  viewBox="0 0 24 24"
  fill="none"
  xmlns="http://www.w3.org/2000/svg"
>
  <rect width="24" height="24" fill="#07981F" />
  <g clip-path="url(#clip0_176_22)">
    <path
      d="M12 3.71973C7.43131 3.71973 3.71997 7.43107 3.71997 11.9997C3.71997 16.5684 7.43131 20.2797 12 20.2797C16.5686 20.2797 20.28 16.5684 20.28 11.9997C20.28 7.43107 16.5686 3.71973 12 3.71973ZM12 4.43973C16.1795 4.43973 19.56 7.82019 19.56 11.9997C19.56 16.1793 16.1795 19.5597 12 19.5597C7.82043 19.5597 4.43997 16.1793 4.43997 11.9997C4.43997 7.82019 7.82043 4.43973 12 4.43973ZM12 5.87973C10.6104 5.87973 9.47997 6.94829 9.47997 8.26121C9.47997 9.53777 10.6624 10.9858 11.7686 11.9154C11.8356 11.9715 11.9175 11.999 12 11.999C12.0824 11.999 12.1647 11.9712 12.2313 11.9146C13.3376 10.9851 14.52 9.53777 14.52 8.26121C14.52 6.94865 13.3892 5.88009 12 5.87973ZM8.55466 12.0025C7.99091 12.0172 7.46663 12.1247 7.04786 12.3639C6.51182 12.6699 6.12744 13.1755 5.96364 13.7857C5.78976 14.4337 5.8894 15.1473 6.23716 15.7439C6.71884 16.5704 7.57956 17.039 8.44356 17.039C8.83704 17.039 9.23142 16.9419 9.59106 16.7367C10.7092 16.097 11.3795 14.3468 11.6343 12.9215C11.6653 12.7491 11.5676 12.5787 11.4023 12.5193C10.5446 12.2111 9.49424 11.9781 8.55466 12.0025ZM15.446 12.0025C14.5065 11.9781 13.4563 12.2111 12.5983 12.5193C12.4331 12.5787 12.3346 12.7491 12.3656 12.9215C12.6201 14.3468 13.2907 16.0977 14.4089 16.7367C14.7682 16.9419 15.1625 17.039 15.5564 17.039C16.42 17.039 17.2807 16.5708 17.7635 15.7439C18.1112 15.1473 18.2105 14.434 18.037 13.7857C17.8736 13.1751 17.4881 12.6703 16.9521 12.3639C16.5333 12.1247 16.0097 12.0172 15.446 12.0025Z"
      fill="black"
    />
  </g>
  <defs>
    <clipPath id="clip0_176_22">
      <rect width="18" height="18" fill="white" transform="translate(3 3)" />
    </clipPath>
  </defs>
</svg>
