<svg
  width="24"
  height="24"
  viewBox="0 0 24 24"
  fill="none"
  xmlns="http://www.w3.org/2000/svg"
>
  <rect width="24" height="24" fill="#07981F" />
  <path
    fill-rule="evenodd"
    clip-rule="evenodd"
    d="M11.95 7H10.475C9.66038 7 9 7.66038 9 8.475C9 9.28962 9.66038 9.95 10.475 9.95H11.95V7ZM11.95 6H12.95H14.425C15.792 6 16.9 7.10809 16.9 8.475C16.9 9.28164 16.5142 9.99816 15.9169 10.45C16.5142 10.9018 16.9 11.6184 16.9 12.425C16.9 13.7919 15.792 14.9 14.425 14.9C13.8723 14.9 13.3619 14.7189 12.95 14.4127V14.9V16.375C12.95 17.7419 11.8419 18.85 10.475 18.85C9.10809 18.85 8 17.7419 8 16.375C8 15.5683 8.38588 14.8519 8.98312 14.4C8.38588 13.9482 8 13.2316 8 12.425C8 11.6184 8.38589 10.9018 8.98314 10.45C8.38589 9.99816 8 9.28164 8 8.475C8 7.10809 9.10809 6 10.475 6H11.95ZM12.95 7V9.95H14.425C15.2397 9.95 15.9 9.28962 15.9 8.475C15.9 7.66038 15.2397 7 14.425 7H12.95ZM10.475 13.9H11.95V12.4288V12.425V12.4212V10.95H10.475C9.66038 10.95 9 11.6104 9 12.425C9 13.2377 9.65722 13.8969 10.4691 13.9L10.475 13.9ZM9 16.375C9 15.5623 9.65722 14.9032 10.4691 14.9L10.475 14.9H11.95V16.375C11.95 17.1896 11.2896 17.85 10.475 17.85C9.66038 17.85 9 17.1896 9 16.375ZM12.95 12.4221C12.9516 11.6088 13.6114 10.95 14.425 10.95C15.2397 10.95 15.9 11.6104 15.9 12.425C15.9 13.2396 15.2397 13.9 14.425 13.9C13.6114 13.9 12.9516 13.2412 12.95 12.4279V12.4221Z"
    fill="black"
  />
</svg>
