<svg
  width="24"
  height="24"
  viewBox="0 0 24 24"
  fill="none"
  xmlns="http://www.w3.org/2000/svg"
>
  <rect width="24" height="24" fill="#07981F" />
  <path
    d="M11.6615 12.7393C11.6615 12.7393 10.7542 10.991 10.7877 9.71353C10.8122 8.80062 12.8706 7.8982 13.6787 6.58786C14.4854 5.2768 13.5781 4 13.5781 4C13.5781 4 13.78 4.94153 13.2421 5.91522C12.7043 6.89029 10.7192 7.46233 9.94743 9.14288C9.17563 10.8234 11.6615 12.7393 11.6615 12.7393Z"
    fill="black"
  />
  <path
    d="M15.0572 7.42773C15.0572 7.42773 11.9651 8.60467 11.9651 9.94853C11.9651 11.2938 12.8047 11.7303 12.9402 12.1669C13.0743 12.6048 12.7048 13.3438 12.7048 13.3438C12.7048 13.3438 13.9146 12.5036 13.712 11.5285C13.5101 10.5534 12.5693 10.2503 13.1078 9.27664C13.4675 8.62355 15.0572 7.42773 15.0572 7.42773Z"
    fill="black"
  />
  <path
    d="M11.326 14.5155C14.1835 14.4135 15.2256 13.5118 15.2256 13.5118C13.3775 14.0154 8.4693 13.9826 8.43507 13.6131C8.40224 13.2436 9.94728 12.9404 9.94728 12.9404C9.94728 12.9404 7.52777 12.9404 7.3259 13.5453C7.12401 14.1502 8.47066 14.6154 11.326 14.5155Z"
    fill="black"
  />
  <path
    d="M15.4604 15.9325C15.4604 15.9325 18.2571 15.336 17.9805 13.8168C17.6453 11.9672 15.6951 13.0093 15.6951 13.0093C15.6951 13.0093 17.0746 13.0093 17.208 13.8489C17.3428 14.6892 15.4604 15.9325 15.4604 15.9325Z"
    fill="black"
  />
  <path
    d="M14.0824 15.1261C14.0824 15.1261 13.3777 15.3112 12.3335 15.4285C10.9337 15.5857 9.2413 15.4613 9.1065 15.2259C8.97381 14.9906 9.34188 14.8564 9.34188 14.8564C7.66064 15.2602 8.58055 15.9649 10.5509 16.1004C12.2398 16.2157 14.7537 15.5961 14.7537 15.5961L14.0824 15.1261Z"
    fill="black"
  />
  <path
    d="M9.74677 16.5938C9.74677 16.5938 8.98404 16.6154 8.93933 17.0191C8.89532 17.4201 9.40871 17.7805 11.2918 17.8922C13.1742 18.004 14.4971 17.3775 14.4971 17.3775L13.6456 16.8606C13.6456 16.8606 13.1071 16.9737 12.278 17.0855C11.4482 17.198 9.7467 16.9954 9.67968 16.8396C9.61126 16.6824 9.74677 16.5938 9.74677 16.5938Z"
    fill="black"
  />
  <path
    d="M17.0732 18.4091C17.3645 18.0947 16.9831 17.8482 16.9831 17.8482C16.9831 17.8482 17.1172 18.0053 16.9398 18.1842C16.7603 18.363 15.1238 18.8107 12.5017 18.9455C9.88034 19.0803 7.03405 18.6989 6.94393 18.363C6.85663 18.027 8.40164 17.7588 8.40164 17.7588C8.22284 17.7811 6.07153 17.8258 6.00308 18.4091C5.93602 18.9909 6.94393 19.4617 10.979 19.4617C15.012 19.461 16.7834 18.7213 17.0732 18.4091Z"
    fill="black"
  />
  <path
    d="M15.5052 19.7318C13.7345 20.0894 8.35767 19.8638 8.35767 19.8638C8.35767 19.8638 11.8521 20.6936 15.8411 19.9993C17.7479 19.6668 17.859 18.7441 17.859 18.7441C17.859 18.7441 17.2758 19.3721 15.5052 19.7318Z"
    fill="black"
  />
</svg>
