<svg
  width="24"
  height="24"
  viewBox="0 0 24 24"
  fill="none"
  xmlns="http://www.w3.org/2000/svg"
>
  <g clip-path="url(#clip0_177_50)">
    <path d="M0 0H24V24H0V0Z" fill="#07981F" />
    <path
      d="M6.3104 20.0564L8.14696 18.9449C8.50133 19.5731 8.82365 20.1047 9.5968 20.1047C10.3379 20.1047 10.8052 19.8148 10.8052 18.6872V11.0186H13.0606V18.7191C13.0606 21.0551 11.6913 22.1184 9.69346 22.1184C7.88924 22.1184 6.84196 21.184 6.3103 20.0562M14.2856 19.8147L16.122 18.7515C16.6055 19.541 17.2338 20.1209 18.3453 20.1209C19.2799 20.1209 19.8757 19.6537 19.8757 19.0092C19.8757 18.236 19.2636 17.9621 18.2325 17.5111L17.6688 17.2692C16.0416 16.5767 14.9622 15.7067 14.9622 13.8701C14.9622 12.1785 16.251 10.8896 18.2648 10.8896C19.6986 10.8896 20.7297 11.3891 21.4707 12.6941L19.7146 13.8219C19.3279 13.1291 18.9092 12.8553 18.2647 12.8553C17.6042 12.8553 17.1853 13.2742 17.1853 13.8219C17.1853 14.4985 17.6042 14.7725 18.5707 15.1914L19.1346 15.433C21.0517 16.2547 22.1311 17.0923 22.1311 18.9771C22.1311 21.0071 20.5362 22.1186 18.3936 22.1186C16.2993 22.1186 14.946 21.1198 14.2855 19.8148"
      fill="black"
    />
  </g>
  <defs>
    <clipPath id="clip0_177_50">
      <rect width="24" height="24" fill="white" />
    </clipPath>
  </defs>
</svg>
