<svg
  width="24"
  height="24"
  viewBox="0 0 24 24"
  fill="none"
  xmlns="http://www.w3.org/2000/svg"
>
  <g clip-path="url(#clip0_176_2)">
    <rect width="24" height="24" fill="#07981F" />
    <path
      d="M14.886 8.304C14.89 5.365 14.886 4.061 14.867 4L13.412 4.026C13.398 4.08 13.389 5.194 13.389 7.176V10.242L14.135 11.382L14.879 12.522L14.886 8.304Z"
      fill="black"
    />
    <path
      fill-rule="evenodd"
      clip-rule="evenodd"
      d="M17.011 18.572L15.111 15.694C14.064 14.11 11.935 10.885 10.377 8.523C9.42016 7.06394 8.45514 5.61025 7.482 4.162H6.005V8.998L6 13.701H7.46032C7.46032 13.701 7.466 13.572 7.473 10.192C7.477 8.262 7.487 6.681 7.496 6.683C8.31067 7.86309 9.11769 9.04845 9.917 10.239L12.321 13.797L14.24 16.389C14.8852 17.2669 15.5365 18.1403 16.194 19.009L17.011 18.572Z"
      fill="black"
    />
  </g>
  <defs>
    <clipPath id="clip0_176_2">
      <rect width="24" height="24" fill="white" />
    </clipPath>
  </defs>
</svg>
