<svg width="24" height="24" viewBox="0 0 24 24" fill="none" xmlns="http://www.w3.org/2000/svg">
<rect width="24" height="24" fill="#07981F"/>
<path d="M5.26136 10.1807H7.63492C8.33163 10.1866 8.83646 10.3863 9.14939 10.78C9.46231 11.1736 9.56565 11.7112 9.45937 12.3928C9.41804 12.7042 9.32652 13.0097 9.18482 13.3093C9.04901 13.609 8.86007 13.8793 8.618 14.1202C8.32278 14.4257 8.0069 14.6196 7.67035 14.7018C7.3338 14.7841 6.98543 14.8252 6.62527 14.8252H5.56249L5.22594 16.4997H3.99487L5.26136 10.1807ZM6.29758 11.1854L5.76619 13.8293C5.80161 13.8352 5.83704 13.8381 5.87246 13.8381H5.99646C6.56328 13.844 7.03562 13.7882 7.41351 13.6707C7.79138 13.5473 8.04527 13.1184 8.17517 12.384C8.28145 11.767 8.17517 11.4116 7.85634 11.3176C7.5434 11.2236 7.15075 11.1795 6.67841 11.1854C6.60756 11.1912 6.53966 11.1942 6.47471 11.1942C6.41567 11.1942 6.35367 11.1942 6.28872 11.1942L6.29758 11.1854Z" fill="black"/>
<path d="M10.862 8.49707H12.0842L11.7388 10.1804H12.837C13.4393 10.1922 13.888 10.3155 14.1832 10.5506C14.4844 10.7856 14.5729 11.2321 14.4489 11.8902L13.8555 14.8249H12.6156L13.1824 12.0224C13.2415 11.7286 13.2238 11.52 13.1293 11.3966C13.0348 11.2732 12.8311 11.2115 12.5182 11.2115L11.5351 11.2027L10.8089 14.8249H9.58667L10.862 8.49707Z" fill="black"/>
<path d="M15.7616 10.1807H18.1352C18.8319 10.1866 19.3367 10.3863 19.6496 10.78C19.9626 11.1736 20.0659 11.7112 19.9596 12.3928C19.9183 12.7042 19.8268 13.0097 19.6851 13.3093C19.5493 13.609 19.3603 13.8793 19.1182 14.1202C18.823 14.4257 18.5071 14.6196 18.1706 14.7018C17.834 14.7841 17.4857 14.8252 17.1255 14.8252H16.0627L15.7262 16.4997H14.4951L15.7616 10.1807ZM16.7978 11.1854L16.2664 13.8293C16.3019 13.8352 16.3373 13.8381 16.3727 13.8381H16.4967C17.0635 13.844 17.5359 13.7882 17.9137 13.6707C18.2916 13.5473 18.5455 13.1184 18.6754 12.384C18.7817 11.767 18.6754 11.4116 18.3566 11.3176C18.0436 11.2236 17.651 11.1795 17.1787 11.1854C17.1078 11.1912 17.0399 11.1942 16.975 11.1942C16.9159 11.1942 16.8539 11.1942 16.789 11.1942L16.7978 11.1854Z" fill="black"/>
</svg>
