<svg
  width="24"
  height="24"
  viewBox="0 0 24 24"
  fill="none"
  xmlns="http://www.w3.org/2000/svg"
>
  <rect width="24" height="24" fill="#07981F" />
  <path
    d="M6.46582 7.05464C7.11317 6.93677 8.0106 6.84863 9.23143 6.84863C10.5555 6.84863 11.5264 7.12807 12.1591 7.65762C12.7475 8.1432 13.1301 8.92279 13.1301 9.84961C13.1301 10.7911 12.836 11.5709 12.2769 12.1005C11.5561 12.8214 10.4233 13.1597 9.14342 13.1597C8.80504 13.1597 8.49604 13.1451 8.26057 13.1008V16.8376H6.46582V7.05464ZM8.26057 11.674C8.48136 11.7329 8.77564 11.7475 9.14342 11.7475C10.4968 11.7475 11.3206 11.0856 11.3206 9.92324C11.3206 8.81997 10.5555 8.23137 9.30502 8.23137C8.80504 8.23137 8.45197 8.27561 8.26057 8.31981V11.674ZM13.5265 11.7622C13.5265 10.497 14.5712 9.51125 16.2337 9.51125C17.0279 9.51125 17.7195 9.71726 18.1312 9.93795L17.7783 11.2178C17.4693 11.0412 16.8954 10.806 16.263 10.806C15.6158 10.806 15.2626 11.115 15.2626 11.556C15.2626 12.0124 15.601 12.2329 16.5131 12.5566C17.8077 13.0274 18.4107 13.6894 18.4257 14.7485C18.4257 16.0431 17.4106 16.9995 15.5125 16.9995C14.6446 16.9995 13.8649 16.7787 13.3355 16.4846L13.6884 15.1753C14.1004 15.4255 14.8802 15.69 15.5275 15.69C16.322 15.69 16.6747 15.3664 16.6747 14.8959C16.6747 14.4102 16.3807 14.16 15.4981 13.851C14.1004 13.3657 13.512 12.6005 13.5265 11.7622Z"
    fill="black"
  />
</svg>
