<svg width="24" height="24" viewBox="0 0 24 24" fill="none" xmlns="http://www.w3.org/2000/svg">
<rect width="24" height="24" fill="#07981F"/>
<path d="M13.8125 5.137C13.2315 5.04138 12.3812 4.99731 11.804 5.00013C11.263 5.00075 10.723 5.04654 10.1897 5.137C8.7603 5.387 8.49999 5.90887 8.49999 6.87262V8.00011H12V8.50011H7.36312C6.06437 8.50011 5.01032 10.0523 5 11.9726C5 11.9817 5 11.9907 5 12.0001C4.99955 12.3358 5.03232 12.6708 5.09782 13.0001C5.38813 14.4463 6.2925 15.5001 7.36312 15.5001H7.99999V13.8126C7.99999 12.8345 8.65124 11.9392 9.71873 11.747L10.0272 11.7085H13.8125C13.9714 11.7092 14.1298 11.6881 14.2831 11.646C14.6336 11.5524 14.9432 11.3453 15.1634 11.0569C15.3836 10.7686 15.5019 10.4154 15.5 10.0526V6.87262C15.5 5.96887 14.7287 5.28731 13.8125 5.137ZM10.0915 7.29699C9.96546 7.29742 9.84209 7.2604 9.73707 7.19062C9.63205 7.12084 9.55012 7.02145 9.50167 6.90504C9.45322 6.78864 9.44043 6.66047 9.46493 6.53678C9.48942 6.4131 9.55009 6.29948 9.63924 6.21032C9.7284 6.12116 9.84202 6.06049 9.96571 6.036C10.0894 6.01151 10.2176 6.0243 10.334 6.07275C10.4504 6.1212 10.5498 6.20313 10.6195 6.30814C10.6893 6.41316 10.7263 6.53653 10.7259 6.66262C10.726 6.74594 10.7096 6.82845 10.6777 6.90543C10.6458 6.98241 10.5991 7.05236 10.5402 7.11128C10.4813 7.17019 10.4113 7.21692 10.3344 7.24879C10.2574 7.28065 10.1749 7.29703 10.0915 7.29699Z" fill="black"/>
<path d="M18.8525 10.7812C18.5181 9.44968 17.6521 8.5 16.6368 8.5H16.0834V9.98281C16.0834 11.2194 15.2709 12.1147 14.279 12.2681C14.1788 12.2836 14.0776 12.2915 13.9762 12.2915H10.19C10.0294 12.2914 9.86944 12.3119 9.71406 12.3525C9.01687 12.5356 8.5 13.1156 8.5 13.8678V17.0481C8.5 17.9543 9.41062 18.4856 10.3041 18.7453C11.3731 19.0562 12.5378 19.1124 13.8172 18.7453C14.6668 18.5025 15.5 18.0115 15.5 17.0481V16H12V15.5H16.6368C17.5568 15.5 18.354 14.7209 18.7446 13.584C18.9162 13.0736 19.0024 12.5384 19 12C19.0008 11.5892 18.9513 11.1799 18.8525 10.7812ZM13.8909 16.625C14.017 16.6245 14.1404 16.6615 14.2454 16.7313C14.3504 16.8011 14.4323 16.9005 14.4808 17.0169C14.5292 17.1333 14.542 17.2615 14.5175 17.3852C14.493 17.5089 14.4324 17.6225 14.3432 17.7116C14.2541 17.8008 14.1404 17.8615 14.0167 17.886C13.8931 17.9104 13.7649 17.8977 13.6485 17.8492C13.5321 17.8008 13.4327 17.7188 13.3629 17.6138C13.2931 17.5088 13.2561 17.3854 13.2565 17.2593C13.2565 17.176 13.2729 17.0935 13.3047 17.0165C13.3366 16.9395 13.3833 16.8696 13.4423 16.8107C13.5012 16.7518 13.5711 16.705 13.6481 16.6732C13.7251 16.6413 13.8076 16.6249 13.8909 16.625Z" fill="black"/>
</svg>
