<svg
  width="24"
  height="24"
  viewBox="0 0 24 24"
  fill="none"
  xmlns="http://www.w3.org/2000/svg"
>
  <rect width="24" height="24" fill="#07981F" />
  <path
    d="M19.9942 13.7519C19.9482 13.3794 19.7595 13.0563 19.4317 12.7903C19.4276 12.7853 19.4231 12.7807 19.4182 12.7766L19.4017 12.7647L19.3963 12.7609L19.2223 12.6359L19.2163 12.6316L19.1941 12.6159C19.186 12.6112 19.1773 12.6075 19.1682 12.605C18.6176 12.2772 17.706 12.0475 16.3112 12.5397C15.9784 11.9796 15.9406 11.5309 16.1634 10.8433C16.2031 10.7236 16.1662 10.6446 16.0474 10.5933C15.8087 10.4918 15.4818 10.5436 15.2499 10.6049C15.1418 10.633 15.0768 10.6943 15.0561 10.7871C14.9093 11.4746 14.4824 12.1028 14.0695 12.7091L14.0451 12.7447C13.7908 12.2053 13.8436 11.7874 14.0208 11.264C14.0561 11.1596 14.0283 11.0902 13.9305 11.0384C13.6573 10.8974 13.2476 10.9943 13.0845 11.0424C12.8776 11.1027 12.6557 11.6618 12.4079 12.3312C12.3454 12.4997 12.2916 12.6437 12.2594 12.7109C12.1829 12.8672 12.1097 13.0453 12.0322 13.2344C11.8572 13.6622 11.66 14.1438 11.3781 14.4463C11.2756 14.2198 11.4369 13.8626 11.5935 13.516C11.7788 13.1063 11.9538 12.7191 11.7522 12.4719C11.7203 12.4328 11.6808 12.4006 11.636 12.3774C11.5913 12.3542 11.5422 12.3404 11.4919 12.3369C11.4263 12.3319 11.3604 12.3426 11.2997 12.3681C11.3206 12.1915 11.3216 12.0522 11.27 11.8837C11.1963 11.6434 11.0047 11.5087 10.7409 11.5159C10.1403 11.5334 9.63212 11.9809 9.31117 12.3534C9.09741 12.6034 8.62363 12.7941 8.20767 12.9613C8.04329 13.0309 7.88703 13.0935 7.75672 13.156C7.54889 12.9803 7.28482 12.8031 7.00668 12.6159C6.22539 12.0915 5.34003 11.4968 5.30941 10.6905C5.26566 9.49953 6.62197 8.6548 7.80578 8.05195C8.70301 7.59568 9.48305 7.29317 10.1906 7.12785C11.1844 6.89565 12.0238 6.94253 12.6851 7.2666C13.047 7.4438 13.2164 7.82913 13.1089 8.2254C12.8276 9.25514 11.6622 9.9608 10.6656 10.2783C10.0653 10.4696 9.5543 10.5496 9.10303 10.5233C8.53738 10.4905 8.07548 10.2067 7.87797 10.0858C7.84633 10.0642 7.81287 10.0454 7.77797 10.0296L7.7689 10.0274C7.75102 10.0229 7.73225 10.0235 7.71467 10.029C7.69708 10.0345 7.68135 10.0448 7.66921 10.0586C7.62858 10.1071 7.64296 10.1836 7.65765 10.2224C7.84984 10.7246 8.24674 11.0418 8.83708 11.1652C9.03028 11.2039 9.22695 11.2227 9.42398 11.2212C10.8056 11.2212 12.5685 10.4246 13.216 9.7686C13.6576 9.3217 13.9792 8.86231 14.1123 8.07008C14.2514 7.24035 13.6889 6.66376 13.1157 6.39812C11.7228 5.75528 10.1409 6.00936 9.05897 6.33562C7.79328 6.7172 6.48384 7.41099 5.46692 8.23978C4.2131 9.26076 3.75996 10.2086 4.11935 11.0602C4.48843 11.9331 5.38847 12.479 6.25883 13.0072C6.54009 13.1775 6.80761 13.3397 7.04856 13.5072C6.97605 13.5425 6.90199 13.5785 6.82667 13.6144C6.09601 13.9685 5.26722 14.367 4.80751 15.0254C4.47374 15.5051 4.41124 15.9827 4.62187 16.4449C4.73438 16.6908 4.93439 16.8577 5.21222 16.9408C5.35674 16.9818 5.50641 17.0017 5.65661 16.9999C6.19758 16.9999 6.79292 16.7811 7.117 16.5789C7.68952 16.2195 8.06048 15.737 8.21986 15.1448C8.36174 14.6179 8.32768 14.0944 8.12142 13.6272L8.82302 13.2735C8.48456 14.3985 8.74395 15.0704 9.02896 15.4411C9.13397 15.5776 9.32335 15.6598 9.53493 15.6636C9.7465 15.6673 9.9412 15.5876 10.0512 15.452C10.2593 15.1942 10.4131 14.8926 10.5547 14.591C10.5472 14.7879 10.5565 14.9873 10.6237 15.1564C10.684 15.3086 10.7834 15.4095 10.9116 15.4483C11.0478 15.4898 11.2075 15.4548 11.3613 15.3498C12.0541 14.8757 12.5279 13.7379 12.9085 12.8231C12.9626 12.6931 13.0145 12.5681 13.0648 12.4512C13.159 12.7883 13.29 13.1139 13.4554 13.4222C13.4923 13.4891 13.4892 13.5185 13.4392 13.5735C13.3639 13.656 13.2589 13.7557 13.1476 13.8613C12.8107 14.181 12.3913 14.5801 12.3351 14.931C12.3132 15.0717 12.4101 15.1998 12.5604 15.2289C13.0126 15.3189 13.5573 15.1873 14.018 14.8773C14.4367 14.596 14.5942 14.2038 14.4867 13.715C14.3827 13.2444 14.6202 12.66 15.1927 11.9768C15.2865 12.3684 15.4115 12.685 15.584 12.9622L15.5793 12.9659C15.1624 13.33 14.5911 13.8285 14.6799 14.4332C14.6873 14.4907 14.7067 14.546 14.7367 14.5957C14.7667 14.6453 14.8068 14.6881 14.8542 14.7213C14.905 14.7556 14.9623 14.779 15.0225 14.7901C15.0828 14.8012 15.1446 14.7997 15.2043 14.7857C15.7502 14.671 16.1612 14.4401 16.46 14.0804C16.7587 13.7207 16.6496 13.3219 16.549 13.0125C17.3303 12.8006 18.026 12.8059 18.6772 13.0281C19.0429 13.1531 19.3051 13.3585 19.4563 13.6419C19.6467 13.9985 19.5439 14.3276 19.166 14.5685C19.0501 14.6426 18.9941 14.6879 18.9907 14.7451C18.9899 14.7584 18.9924 14.7716 18.9978 14.7838C19.0033 14.7959 19.0115 14.8065 19.022 14.8148C19.0657 14.8507 19.2007 14.9132 19.506 14.721C19.7873 14.5445 19.9523 14.3041 19.9945 14.0022C20.003 13.919 20.0029 13.8351 19.9942 13.7519ZM7.50202 14.5351L7.49889 14.5751C7.45014 15.0326 7.21763 15.4314 6.80667 15.7626C6.54853 15.9708 6.26821 16.0986 6.01757 16.123C5.84256 16.1398 5.71537 16.1161 5.63974 16.052C5.58317 16.0042 5.55286 15.9327 5.54598 15.8333C5.49473 15.037 6.74354 14.2457 7.44639 13.9854C7.49655 14.164 7.51537 14.35 7.50202 14.5351ZM10.7006 12.2893C10.585 12.9484 10.2478 14.1926 9.71775 14.6754C9.69243 14.6985 9.67118 14.7067 9.6615 14.7045C9.65181 14.7023 9.64431 14.6907 9.63649 14.6732C9.45961 14.2632 9.52493 13.5707 9.79275 13.0266C9.9987 12.6072 10.2928 12.3294 10.6215 12.2453C10.6352 12.2415 10.6493 12.2395 10.6634 12.2393C10.6745 12.2386 10.6855 12.2415 10.6947 12.2478C10.6985 12.2539 10.7011 12.2608 10.7021 12.2679C10.7031 12.2751 10.7026 12.2824 10.7006 12.2893ZM13.3098 14.692C13.2101 14.796 13.0735 14.782 13.1057 14.7438L13.6133 14.2051C13.5723 14.3904 13.4514 14.5438 13.3098 14.692ZM15.4152 14.226C15.3669 14.2498 15.3147 14.2645 15.2611 14.2694C15.2468 13.986 15.5215 13.6669 15.7924 13.4541C15.8652 13.7497 15.7162 14.0622 15.4152 14.226Z"
    fill="black"
  />
</svg>
