<svg width="36" height="32" viewBox="0 0 36 32" fill="none" xmlns="http://www.w3.org/2000/svg">
<g filter="url(#filter0_d_4221_64)">
<path d="M14.4514 28.5545L14.5014 28.6411H14.4014C13.6348 28.5779 13.0431 28.5847 12.6264 28.6616C12.2098 28.7385 11.7931 28.7616 11.3764 28.731C10.9598 28.7003 10.5378 28.7469 10.1105 28.8706C9.68321 28.9944 9.26969 28.8925 8.86996 28.5649C8.47022 28.2374 8.16264 27.8952 7.94722 27.5385C7.73181 27.1817 7.57106 26.7934 7.46499 26.3735C7.35892 25.9536 7.25637 25.5317 7.15735 25.1077C7.05833 24.6838 6.80438 24.3493 6.39551 24.1042C5.98664 23.8592 5.74126 23.5197 5.65939 23.0858C5.57752 22.652 5.38779 22.2804 5.09021 21.9711C4.79263 21.6618 4.55571 21.3174 4.37945 20.9381C4.2032 20.5587 3.98836 20.2016 3.73494 19.8668C3.48152 19.532 3.34029 19.1324 3.31124 18.668C3.2822 18.2037 3.13451 17.8078 2.86818 17.4805C2.60185 17.1531 2.39131 16.7935 2.23656 16.4018C2.08182 16.01 1.78591 15.6644 1.34885 15.3651C0.911794 15.0658 0.778328 14.6801 0.948454 14.2081C1.11858 13.7361 1.40786 13.3775 1.8163 13.1322C2.22474 12.8869 2.43911 12.5295 2.4594 12.0601C2.47969 11.5907 2.6479 11.2067 2.964 10.908C3.28011 10.6094 3.50467 10.2579 3.63767 9.8536C3.77067 9.44927 4.00556 9.10376 4.34235 8.81707C4.67913 8.53039 4.87181 8.16051 4.92039 7.70743C4.96896 7.25435 5.09789 6.84766 5.30718 6.48737C5.51647 6.12708 5.81292 5.8171 6.19651 5.55745C6.58011 5.29779 6.89121 4.99628 7.12984 4.65293C7.36846 4.30957 7.59155 3.95725 7.79912 3.59597C8.00669 3.23468 8.23378 2.88466 8.48037 2.54591C8.72696 2.20715 8.94749 1.92764 9.14196 1.70737C9.33643 1.48709 9.6234 1.25702 10.0029 1.01713C10.3823 0.777251 10.7804 0.625362 11.1971 0.561468C11.6138 0.497573 12.0304 0.573383 12.4471 0.788897C12.8638 1.00441 13.2804 1.03717 13.6971 0.887164C14.1138 0.737161 14.352 0.706522 14.4118 0.795245L14.4014 0.928331H14.5014L14.4514 1.01493L14.5195 0.938762C14.5315 0.945715 14.5007 1.05154 14.4269 1.25622C14.3531 1.46091 14.2068 1.74064 13.9879 2.09541C13.7691 2.45019 13.579 2.82154 13.4175 3.20946C13.2561 3.59738 12.9973 3.9291 12.6412 4.2046C12.285 4.48011 11.9957 4.79417 11.7731 5.14677C11.5505 5.49938 11.4099 5.89935 11.3514 6.34668C11.2928 6.79401 11.1278 7.17984 10.8562 7.50417C10.5846 7.8285 10.2919 8.14065 9.97817 8.44062C9.6644 8.74059 9.51718 9.13672 9.5365 9.629C9.55582 10.1213 9.40264 10.514 9.07696 10.8071C8.75127 11.1002 8.4629 11.4148 8.21184 11.751C7.96078 12.0871 7.7972 12.4738 7.72112 12.911C7.64503 13.3482 7.51708 13.7391 7.33728 14.0835C7.15747 14.428 7.06301 14.7716 7.05389 15.1143C7.04478 15.457 7.1973 15.7782 7.51146 16.078C7.82561 16.3777 8.06687 16.7196 8.23523 17.1035C8.40359 17.4874 8.4887 17.9194 8.49055 18.3995C8.49241 18.8795 8.69181 19.2455 9.08875 19.4975C9.48569 19.7494 9.69498 20.1097 9.71661 20.5783C9.73825 21.047 9.97393 21.392 10.4236 21.6135C10.8734 21.835 11.2079 22.123 11.4272 22.4775C11.6464 22.832 11.8469 23.1974 12.0286 23.5736C12.2104 23.9498 12.3416 24.3552 12.4223 24.7897C12.503 25.2243 12.6055 25.6462 12.7299 26.0555C12.8543 26.4648 13.1209 26.792 13.5299 27.037C13.9388 27.282 14.246 27.7879 14.4514 28.5545Z" fill="#FFEC00"/>
<path fill-rule="evenodd" clip-rule="evenodd" d="M21.0561 10.5646C20.9128 10.5405 20.7685 10.5503 20.6231 10.5938L20.2039 10.7194C20.0585 10.763 19.9858 10.8105 19.9858 10.8621V11.0108C19.9858 11.0623 19.9171 11.0786 19.7798 11.0597L19.3839 11.0051C19.2466 10.9862 19.1076 10.9771 18.9669 10.9778L18.5614 10.9799C18.4207 10.9806 18.2748 10.9699 18.1236 10.9478L17.6877 10.884C17.5365 10.8618 17.4034 10.9048 17.2884 11.0129L16.9569 11.3244C16.8419 11.4325 16.7175 11.5075 16.5837 11.5495L16.198 11.6705C16.0641 11.7124 15.9329 11.7618 15.8044 11.8184L15.4338 11.9818C15.3052 12.0385 15.1829 12.1068 15.0669 12.1867L14.7326 12.417C14.6166 12.4969 14.5062 12.5842 14.4014 12.6789L14.0992 12.952C13.9943 13.0467 13.875 13.1208 13.7413 13.1741L13.3557 13.3279C13.2219 13.3812 13.1102 13.4642 13.0206 13.5767L12.7622 13.9011C12.6726 14.0137 12.5669 14.1055 12.4452 14.1767L12.0944 14.3817C11.9728 14.4529 11.9011 14.5513 11.8795 14.677L11.8172 15.0391C11.7956 15.1648 11.827 15.2889 11.9114 15.4114L12.1548 15.7646C12.2393 15.8871 12.356 15.9687 12.5051 16.0092L12.9349 16.1262C13.084 16.1667 13.2123 16.2331 13.3199 16.3253L13.6299 16.5912C13.7375 16.6834 13.8441 16.7789 13.9498 16.8776L14.2543 17.1621C14.36 17.2608 14.4943 17.3086 14.6572 17.3054L15.1269 17.2963C15.2898 17.2931 15.4324 17.3237 15.5546 17.3879L15.9068 17.573C16.029 17.6373 16.142 17.7293 16.2457 17.8491L16.5446 18.1943C16.6483 18.3141 16.777 18.3638 16.9308 18.3433L17.3739 18.2844C17.5277 18.2639 17.6644 18.3109 17.784 18.4252L18.1289 18.7548C18.2485 18.8692 18.3807 18.9322 18.5256 18.9438L18.9431 18.9773C19.0879 18.9889 19.2325 18.9543 19.377 18.8735L19.7934 18.6407C19.9379 18.5599 20.0832 18.5655 20.2291 18.6573L20.65 18.9221C20.7959 19.014 20.9336 19.0084 21.0628 18.9056L21.4354 18.6091C21.5646 18.5062 21.7013 18.4561 21.8454 18.4587L22.2607 18.4664C22.4048 18.469 22.5419 18.4424 22.6719 18.3866L23.0467 18.2257C23.1767 18.1698 23.3154 18.1351 23.4627 18.1215L23.8872 18.0824C24.0345 18.0688 24.1686 18.0232 24.2894 17.9456L24.6378 17.722C24.7586 17.6444 24.8865 17.5801 25.0214 17.5292L25.4102 17.3824C25.5451 17.3315 25.6647 17.2556 25.7691 17.1549L26.0701 16.8644C26.1745 16.7636 26.2724 16.6564 26.3639 16.5427L26.6275 16.2151C26.719 16.1015 26.8402 16.0265 26.9912 15.9902L27.4265 15.8856C27.5776 15.8493 27.6859 15.7627 27.7514 15.626L27.9403 15.2319C28.0058 15.0952 28.0315 14.99 28.0171 14.9164L27.9758 14.7043C27.9615 14.6307 27.908 14.543 27.8154 14.4413L27.5484 14.148C27.4557 14.0463 27.3523 13.9549 27.2381 13.874L26.909 13.6409C26.7948 13.56 26.6807 13.4794 26.5667 13.3992L26.238 13.1681C26.124 13.088 26.0154 12.9986 25.9123 12.9L25.6151 12.6158C25.512 12.5172 25.4105 12.4117 25.3105 12.2994L25.0223 11.9756C24.9223 11.8632 24.7906 11.8143 24.6273 11.8288L24.1565 11.8706C23.9932 11.8851 23.858 11.8368 23.751 11.7258L23.4426 11.4057C23.3355 11.2946 23.2091 11.2359 23.0631 11.2296L22.6423 11.2112C22.4963 11.2048 22.3605 11.1564 22.2348 11.0661L21.8727 10.8057C21.747 10.7153 21.6125 10.6581 21.4692 10.634L21.0561 10.5646ZM21.7991 15.7012C21.8535 15.5834 21.8908 15.4629 21.9109 15.3396L21.9713 14.9697C21.9914 14.8464 22.0088 14.7848 22.0109 14.7848C22.013 14.7848 22.0005 14.7399 21.9732 14.6501L21.8916 14.3807C21.8643 14.2909 21.8234 14.1929 21.7687 14.0866L21.6046 13.7676C21.5499 13.6613 21.4687 13.5838 21.3611 13.535L21.0381 13.3887C20.9304 13.3399 20.8297 13.2791 20.7359 13.2064L20.4545 12.9882C20.3608 12.9155 20.2507 12.8661 20.1245 12.8399L19.7457 12.7614C19.6194 12.7352 19.506 12.7629 19.4056 12.8444L19.1041 13.0888C19.0037 13.1703 18.9021 13.2456 18.7995 13.3148L18.4918 13.5225C18.3892 13.5918 18.3353 13.6893 18.33 13.8152L18.3144 14.1929C18.3091 14.3188 18.2667 14.4411 18.187 14.56L17.9479 14.9164C17.8683 15.0352 17.8736 15.146 17.9639 15.2488L18.2348 15.5572C18.3251 15.66 18.4009 15.7647 18.4621 15.8713L18.6456 16.191C18.7067 16.2975 18.7978 16.3632 18.9188 16.388L19.2817 16.4623C19.4027 16.4871 19.5185 16.5033 19.6291 16.511L19.9609 16.5341C20.0715 16.5418 20.1911 16.5553 20.3197 16.5747L20.7057 16.6329C20.8343 16.6523 20.9533 16.6261 21.0626 16.5543L21.3904 16.339C21.4997 16.2673 21.5815 16.1725 21.6359 16.0547L21.7991 15.7012Z" fill="#FFEC00"/>
<path fill-rule="evenodd" clip-rule="evenodd" d="M14.4514 28.5545L14.5014 28.6411H14.6014C15.3681 28.4599 15.9598 28.4233 16.3764 28.5315C16.7931 28.6397 17.2098 28.6816 17.6264 28.6574C18.0431 28.6332 18.4598 28.612 18.8764 28.5938C19.2931 28.5756 19.7098 28.5053 20.1264 28.383C20.5431 28.2608 20.9598 28.3291 21.3764 28.5881C21.7931 28.8471 22.2098 28.9655 22.6264 28.9432C23.0431 28.9209 23.4624 28.8986 23.8844 28.8762C24.3064 28.8538 24.6525 28.6754 24.9228 28.3409C25.1931 28.0063 25.4525 27.6702 25.7009 27.3325C25.9493 26.9948 26.1281 26.6169 26.2371 26.1988C26.3462 25.7806 26.5499 25.4171 26.8481 25.1081C27.1464 24.7992 27.4572 24.4975 27.7803 24.203C28.1035 23.9084 28.2804 23.5294 28.311 23.066C28.3417 22.6025 28.5058 22.2162 28.8034 21.9069C29.1011 21.5976 29.4087 21.2941 29.7263 20.9963C30.0438 20.6985 30.3048 20.3681 30.5091 20.0049C30.7135 19.6418 30.9236 19.282 31.1395 18.9255C31.3553 18.569 31.4638 18.1505 31.4648 17.6699C31.4658 17.1894 31.5949 16.7828 31.8521 16.4502C32.1093 16.1175 32.3755 15.7747 32.6508 15.4215C32.9261 15.0684 32.8947 14.7315 32.5565 14.4108C32.2183 14.0901 32.0397 13.6947 32.0208 13.2245C32.0018 12.7543 31.8397 12.3668 31.5344 12.0619C31.2292 11.757 31.036 11.3874 30.9549 10.9531C30.8738 10.5188 30.6234 10.1823 30.2038 9.94337C29.7843 9.70449 29.4886 9.39407 29.3168 9.01213C29.145 8.63019 29.0129 8.22534 28.9205 7.79759C28.828 7.36983 28.6891 6.96891 28.5037 6.59483C28.3183 6.22075 28.1507 5.83636 28.001 5.44166C27.8513 5.04696 27.6653 4.67322 27.443 4.32044C27.2207 3.96766 26.9278 3.65564 26.5643 3.38438C26.2008 3.11312 25.9334 2.78639 25.7621 2.40419C25.5907 2.02199 25.3643 1.69451 25.0828 1.42175C24.8014 1.14898 24.455 0.97814 24.0437 0.90921C23.6325 0.84028 23.2185 0.880812 22.8019 1.03081C22.3852 1.1808 21.9685 1.20602 21.5519 1.10647C21.1352 1.00692 20.7185 0.883787 20.3019 0.73708C19.8852 0.590372 19.4685 0.566885 19.0519 0.666618C18.6352 0.766352 18.2185 0.769022 17.8019 0.67463C17.3852 0.580238 16.9685 0.667587 16.5519 0.936678C16.1352 1.20577 15.7185 1.22192 15.3019 0.985133C14.8852 0.748346 14.6476 0.679682 14.5891 0.779142L14.6014 0.928331H14.5014L14.4514 1.01493L14.5195 0.938762C14.5315 0.945715 14.5007 1.05154 14.4269 1.25622C14.3531 1.46091 14.2068 1.74064 13.9879 2.09541C13.7691 2.45019 13.579 2.82154 13.4175 3.20946C13.2561 3.59738 12.9973 3.9291 12.6412 4.2046C12.285 4.48011 11.9957 4.79417 11.7731 5.14677C11.5505 5.49938 11.4099 5.89935 11.3514 6.34668C11.2928 6.79401 11.1278 7.17984 10.8562 7.50417C10.5846 7.8285 10.2919 8.14065 9.97817 8.44062C9.6644 8.74059 9.51718 9.13672 9.5365 9.629C9.55582 10.1213 9.40264 10.514 9.07696 10.8071C8.75127 11.1002 8.4629 11.4148 8.21184 11.751C7.96078 12.0871 7.7972 12.4738 7.72112 12.911C7.64503 13.3482 7.51708 13.7391 7.33728 14.0835C7.15747 14.428 7.06301 14.7716 7.05389 15.1143C7.04478 15.457 7.1973 15.7782 7.51146 16.078C7.82561 16.3777 8.06687 16.7196 8.23523 17.1035C8.40359 17.4874 8.4887 17.9194 8.49055 18.3995C8.49241 18.8795 8.69181 19.2455 9.08875 19.4975C9.48569 19.7494 9.69498 20.1097 9.71661 20.5783C9.73825 21.047 9.97393 21.392 10.4236 21.6135C10.8734 21.835 11.2079 22.123 11.4272 22.4775C11.6464 22.832 11.8469 23.1974 12.0286 23.5736C12.2104 23.9498 12.3416 24.3552 12.4223 24.7897C12.503 25.2243 12.6055 25.6462 12.7299 26.0555C12.8543 26.4648 13.1209 26.792 13.5299 27.037C13.9388 27.282 14.246 27.7879 14.4514 28.5545ZM21.0561 10.5646C20.9128 10.5405 20.7685 10.5503 20.6231 10.5938L20.2039 10.7194C20.0585 10.763 19.9858 10.8105 19.9858 10.8621V11.0108C19.9858 11.0623 19.9171 11.0786 19.7798 11.0597L19.3839 11.0051C19.2466 10.9862 19.1076 10.9771 18.9669 10.9778L18.5614 10.9799C18.4207 10.9806 18.2748 10.9699 18.1236 10.9478L17.6877 10.884C17.5365 10.8618 17.4034 10.9048 17.2884 11.0129L16.9569 11.3244C16.8419 11.4325 16.7175 11.5075 16.5837 11.5495L16.198 11.6705C16.0641 11.7124 15.9329 11.7618 15.8044 11.8184L15.4338 11.9818C15.3052 12.0385 15.1829 12.1068 15.0669 12.1867L14.7326 12.417C14.6166 12.4969 14.5062 12.5842 14.4014 12.6789L14.0992 12.952C13.9943 13.0467 13.875 13.1208 13.7413 13.1741L13.3557 13.3279C13.2219 13.3812 13.1102 13.4642 13.0206 13.5767L12.7622 13.9011C12.6726 14.0137 12.5669 14.1055 12.4452 14.1767L12.0944 14.3817C11.9728 14.4529 11.9011 14.5513 11.8795 14.677L11.8172 15.0391C11.7956 15.1648 11.827 15.2889 11.9114 15.4114L12.1548 15.7646C12.2393 15.8871 12.356 15.9687 12.5051 16.0092L12.9349 16.1262C13.084 16.1667 13.2123 16.2331 13.3199 16.3253L13.6299 16.5912C13.7375 16.6834 13.8441 16.7789 13.9498 16.8776L14.2543 17.1621C14.36 17.2608 14.4943 17.3086 14.6572 17.3054L15.1269 17.2963C15.2898 17.2931 15.4324 17.3237 15.5546 17.3879L15.9068 17.573C16.029 17.6373 16.142 17.7293 16.2457 17.8491L16.5446 18.1943C16.6483 18.3141 16.777 18.3638 16.9308 18.3433L17.3739 18.2844C17.5277 18.2639 17.6644 18.3109 17.784 18.4252L18.1289 18.7548C18.2485 18.8692 18.3807 18.9322 18.5256 18.9438L18.9431 18.9773C19.0879 18.9889 19.2325 18.9543 19.377 18.8735L19.7934 18.6407C19.9379 18.5599 20.0832 18.5655 20.2291 18.6573L20.65 18.9221C20.7959 19.014 20.9336 19.0084 21.0628 18.9056L21.4354 18.6091C21.5646 18.5062 21.7013 18.4561 21.8454 18.4587L22.2607 18.4664C22.4048 18.469 22.5419 18.4424 22.6719 18.3866L23.0467 18.2257C23.1767 18.1698 23.3154 18.1351 23.4627 18.1215L23.8872 18.0824C24.0345 18.0688 24.1686 18.0232 24.2894 17.9456L24.6378 17.722C24.7586 17.6444 24.8865 17.5801 25.0214 17.5292L25.4102 17.3824C25.5451 17.3315 25.6647 17.2556 25.7691 17.1549L26.0701 16.8644C26.1745 16.7636 26.2724 16.6564 26.3639 16.5427L26.6275 16.2151C26.719 16.1015 26.8402 16.0265 26.9912 15.9902L27.4265 15.8856C27.5776 15.8493 27.6859 15.7627 27.7514 15.626L27.9403 15.2319C28.0058 15.0952 28.0315 14.99 28.0171 14.9164L27.9758 14.7043C27.9615 14.6307 27.908 14.543 27.8154 14.4413L27.5484 14.148C27.4557 14.0463 27.3523 13.9549 27.2381 13.874L26.909 13.6409C26.7948 13.56 26.6807 13.4794 26.5667 13.3992L26.238 13.1681C26.124 13.088 26.0154 12.9986 25.9123 12.9L25.6151 12.6158C25.512 12.5172 25.4105 12.4117 25.3105 12.2994L25.0223 11.9756C24.9223 11.8632 24.7906 11.8143 24.6273 11.8288L24.1565 11.8706C23.9932 11.8851 23.858 11.8368 23.751 11.7258L23.4426 11.4057C23.3355 11.2946 23.2091 11.2359 23.0631 11.2296L22.6423 11.2112C22.4963 11.2048 22.3605 11.1564 22.2348 11.0661L21.8727 10.8057C21.747 10.7153 21.6125 10.6581 21.4692 10.634L21.0561 10.5646Z" fill="#FF4910"/>
<path d="M21.7991 15.7012C21.8535 15.5834 21.8908 15.4629 21.9109 15.3396L21.9713 14.9697C21.9914 14.8464 22.0088 14.7848 22.0109 14.7848C22.013 14.7848 22.0005 14.7399 21.9732 14.6501L21.8916 14.3807C21.8643 14.2909 21.8234 14.1929 21.7687 14.0866L21.6046 13.7676C21.5499 13.6613 21.4687 13.5838 21.3611 13.535L21.0381 13.3887C20.9304 13.3399 20.8297 13.2791 20.7359 13.2064L20.4545 12.9882C20.3608 12.9155 20.2507 12.8661 20.1245 12.8399L19.7457 12.7614C19.6194 12.7352 19.506 12.7629 19.4056 12.8444L19.1041 13.0888C19.0037 13.1703 18.9021 13.2456 18.7995 13.3148L18.4918 13.5225C18.3892 13.5918 18.3353 13.6893 18.33 13.8152L18.3144 14.1929C18.3091 14.3188 18.2667 14.4411 18.187 14.56L17.9479 14.9164C17.8683 15.0352 17.8736 15.146 17.9639 15.2488L18.2348 15.5572C18.3251 15.66 18.4009 15.7647 18.4621 15.8713L18.6456 16.191C18.7067 16.2975 18.7978 16.3632 18.9188 16.388L19.2817 16.4623C19.4027 16.4871 19.5185 16.5033 19.6291 16.511L19.9609 16.5341C20.0715 16.5418 20.1911 16.5553 20.3197 16.5747L20.7057 16.6329C20.8343 16.6523 20.9533 16.6261 21.0626 16.5543L21.3904 16.339C21.4997 16.2673 21.5815 16.1725 21.6359 16.0547L21.7991 15.7012Z" fill="#FF4910"/>
<path d="M14.5014 28.6411L14.4514 28.5545C14.246 27.7879 13.9388 27.282 13.5299 27.037C13.1209 26.792 12.8543 26.4648 12.7299 26.0555C12.6055 25.6462 12.503 25.2243 12.4223 24.7897C12.3416 24.3552 12.2104 23.9498 12.0286 23.5736C11.8469 23.1974 11.6464 22.832 11.4272 22.4775C11.2079 22.123 10.8734 21.835 10.4236 21.6135C9.97393 21.392 9.73825 21.047 9.71661 20.5783C9.69498 20.1097 9.48569 19.7494 9.08875 19.4975C8.69181 19.2455 8.49241 18.8795 8.49055 18.3995C8.4887 17.9194 8.40359 17.4874 8.23523 17.1035C8.06687 16.7196 7.82561 16.3777 7.51146 16.078C7.1973 15.7782 7.04478 15.457 7.05389 15.1143C7.06301 14.7716 7.15747 14.428 7.33728 14.0835C7.51708 13.7391 7.64503 13.3482 7.72112 12.911C7.7972 12.4738 7.96078 12.0871 8.21184 11.751C8.4629 11.4148 8.75127 11.1002 9.07696 10.8071C9.40264 10.514 9.55582 10.1213 9.5365 9.629C9.51718 9.13672 9.6644 8.74059 9.97817 8.44062C10.2919 8.14065 10.5846 7.8285 10.8562 7.50417C11.1278 7.17984 11.2928 6.79401 11.3514 6.34668C11.4099 5.89935 11.5505 5.49938 11.7731 5.14677C11.9957 4.79417 12.285 4.48011 12.6412 4.2046C12.9973 3.9291 13.2561 3.59738 13.4175 3.20946C13.579 2.82154 13.7691 2.45019 13.9879 2.09541C14.2068 1.74064 14.3531 1.46091 14.4269 1.25622C14.5007 1.05154 14.5315 0.945715 14.5195 0.938762L14.4514 1.01493L14.5014 0.928331M14.5014 28.6411H14.4014C13.6348 28.5779 13.0431 28.5847 12.6264 28.6616C12.2098 28.7385 11.7931 28.7616 11.3764 28.731C10.9598 28.7003 10.5378 28.7469 10.1105 28.8706C9.68321 28.9944 9.26969 28.8925 8.86996 28.5649C8.47022 28.2374 8.16264 27.8952 7.94722 27.5385C7.73181 27.1817 7.57106 26.7934 7.46499 26.3735C7.35892 25.9536 7.25637 25.5317 7.15735 25.1077C7.05833 24.6838 6.80438 24.3493 6.39551 24.1042C5.98664 23.8592 5.74126 23.5197 5.65939 23.0858C5.57752 22.652 5.38779 22.2804 5.09021 21.9711C4.79263 21.6618 4.55571 21.3174 4.37945 20.9381C4.2032 20.5587 3.98836 20.2016 3.73494 19.8668C3.48152 19.532 3.34029 19.1324 3.31124 18.668C3.2822 18.2037 3.13451 17.8078 2.86818 17.4805C2.60185 17.1531 2.39131 16.7935 2.23656 16.4018C2.08182 16.01 1.78591 15.6644 1.34885 15.3651C0.911794 15.0658 0.778328 14.6801 0.948454 14.2081C1.11858 13.7361 1.40786 13.3775 1.8163 13.1322C2.22474 12.8869 2.43911 12.5295 2.4594 12.0601C2.47969 11.5907 2.6479 11.2067 2.964 10.908C3.28011 10.6094 3.50467 10.2579 3.63767 9.8536C3.77067 9.44927 4.00556 9.10376 4.34235 8.81707C4.67913 8.53039 4.87181 8.16051 4.92039 7.70743C4.96896 7.25435 5.09789 6.84766 5.30718 6.48737C5.51647 6.12708 5.81292 5.8171 6.19651 5.55745C6.58011 5.29779 6.89121 4.99628 7.12984 4.65293C7.36846 4.30957 7.59155 3.95725 7.79912 3.59597C8.00669 3.23468 8.23378 2.88466 8.48037 2.54591C8.72696 2.20715 8.94749 1.92764 9.14196 1.70737C9.33643 1.48709 9.6234 1.25702 10.0029 1.01713C10.3823 0.777251 10.7804 0.625362 11.1971 0.561468C11.6138 0.497573 12.0304 0.573383 12.4471 0.788897C12.8638 1.00441 13.2804 1.03717 13.6971 0.887164C14.1138 0.737161 14.352 0.706522 14.4118 0.795245L14.4014 0.928331H14.5014M14.5014 28.6411H14.6014C15.3681 28.4599 15.9598 28.4233 16.3764 28.5315C16.7931 28.6397 17.2098 28.6816 17.6264 28.6574C18.0431 28.6332 18.4598 28.612 18.8764 28.5938C19.2931 28.5756 19.7098 28.5053 20.1264 28.383C20.5431 28.2608 20.9598 28.3291 21.3764 28.5881C21.7931 28.8471 22.2098 28.9655 22.6264 28.9432C23.0431 28.9209 23.4624 28.8986 23.8844 28.8762C24.3064 28.8538 24.6525 28.6754 24.9228 28.3409C25.1931 28.0063 25.4525 27.6702 25.7009 27.3325C25.9493 26.9948 26.1281 26.6169 26.2371 26.1988C26.3462 25.7806 26.5499 25.4171 26.8481 25.1081C27.1464 24.7992 27.4572 24.4975 27.7803 24.203C28.1035 23.9084 28.2804 23.5294 28.311 23.066C28.3417 22.6025 28.5058 22.2162 28.8034 21.9069C29.1011 21.5976 29.4087 21.2941 29.7263 20.9963C30.0438 20.6985 30.3048 20.3681 30.5091 20.0049C30.7135 19.6418 30.9236 19.282 31.1395 18.9255C31.3553 18.569 31.4638 18.1505 31.4648 17.6699C31.4658 17.1894 31.5949 16.7828 31.8521 16.4502C32.1093 16.1175 32.3755 15.7747 32.6508 15.4215C32.9261 15.0684 32.8947 14.7315 32.5565 14.4108C32.2183 14.0901 32.0397 13.6947 32.0208 13.2245C32.0018 12.7543 31.8397 12.3668 31.5344 12.0619C31.2292 11.757 31.036 11.3874 30.9549 10.9531C30.8738 10.5188 30.6234 10.1823 30.2038 9.94337C29.7843 9.70449 29.4886 9.39407 29.3168 9.01213C29.145 8.63019 29.0129 8.22534 28.9205 7.79759C28.828 7.36983 28.6891 6.96891 28.5037 6.59483C28.3183 6.22075 28.1507 5.83636 28.001 5.44166C27.8513 5.04696 27.6653 4.67322 27.443 4.32044C27.2207 3.96766 26.9278 3.65564 26.5643 3.38438C26.2008 3.11312 25.9334 2.78639 25.7621 2.40419C25.5907 2.02199 25.3643 1.69451 25.0828 1.42175C24.8014 1.14898 24.455 0.97814 24.0437 0.90921C23.6325 0.84028 23.2185 0.880812 22.8019 1.03081C22.3852 1.1808 21.9685 1.20602 21.5519 1.10647C21.1352 1.00692 20.7185 0.883787 20.3019 0.73708C19.8852 0.590372 19.4685 0.566885 19.0519 0.666618C18.6352 0.766352 18.2185 0.769022 17.8019 0.67463C17.3852 0.580238 16.9685 0.667587 16.5519 0.936678C16.1352 1.20577 15.7185 1.22192 15.3019 0.985133C14.8852 0.748346 14.6476 0.679682 14.5891 0.779142L14.6014 0.928331H14.5014M20.6231 10.5938C20.7685 10.5503 20.9128 10.5405 21.0561 10.5646L21.4692 10.634C21.6125 10.6581 21.747 10.7153 21.8727 10.8057L22.2348 11.0661C22.3605 11.1564 22.4963 11.2048 22.6423 11.2112L23.0631 11.2296C23.2091 11.2359 23.3355 11.2946 23.4426 11.4057L23.751 11.7258C23.858 11.8368 23.9932 11.8851 24.1565 11.8706L24.6273 11.8288C24.7906 11.8143 24.9223 11.8632 25.0223 11.9756L25.3105 12.2994C25.4105 12.4117 25.512 12.5172 25.6151 12.6158L25.9123 12.9C26.0154 12.9986 26.124 13.088 26.238 13.1681L26.5667 13.3992C26.6807 13.4794 26.7948 13.56 26.909 13.6409L27.2381 13.874C27.3523 13.9549 27.4557 14.0463 27.5484 14.148L27.8154 14.4413C27.908 14.543 27.9615 14.6307 27.9758 14.7043L28.0171 14.9164C28.0315 14.99 28.0058 15.0952 27.9403 15.2319L27.7514 15.626C27.6859 15.7627 27.5776 15.8493 27.4265 15.8856L26.9912 15.9902C26.8402 16.0265 26.719 16.1015 26.6275 16.2151L26.3639 16.5427C26.2724 16.6564 26.1745 16.7636 26.0701 16.8644L25.7691 17.1549C25.6647 17.2556 25.5451 17.3315 25.4102 17.3824L25.0214 17.5292C24.8865 17.5801 24.7586 17.6444 24.6378 17.722L24.2894 17.9456C24.1686 18.0232 24.0345 18.0688 23.8872 18.0824L23.4627 18.1215C23.3154 18.1351 23.1767 18.1698 23.0467 18.2257L22.6719 18.3866C22.5419 18.4424 22.4048 18.469 22.2607 18.4664L21.8454 18.4587C21.7013 18.4561 21.5646 18.5062 21.4354 18.6091L21.0628 18.9056C20.9336 19.0084 20.7959 19.014 20.65 18.9221L20.2291 18.6573C20.0832 18.5655 19.9379 18.5599 19.7934 18.6407L19.377 18.8735C19.2325 18.9543 19.0879 18.9889 18.9431 18.9773L18.5256 18.9438C18.3807 18.9322 18.2485 18.8692 18.1289 18.7548L17.784 18.4252C17.6644 18.3109 17.5277 18.2639 17.3739 18.2844L16.9308 18.3433C16.777 18.3638 16.6483 18.3141 16.5446 18.1943L16.2457 17.8491C16.142 17.7293 16.029 17.6373 15.9068 17.573L15.5546 17.3879C15.4324 17.3237 15.2898 17.2931 15.1269 17.2963L14.6572 17.3054C14.4943 17.3086 14.36 17.2608 14.2543 17.1621L13.9498 16.8776C13.8441 16.7789 13.7375 16.6834 13.6299 16.5912L13.3199 16.3253C13.2123 16.2331 13.084 16.1667 12.9349 16.1262L12.5051 16.0092C12.356 15.9687 12.2393 15.8871 12.1548 15.7646L11.9114 15.4114C11.827 15.2889 11.7956 15.1648 11.8172 15.0391L11.8795 14.677C11.9011 14.5513 11.9728 14.4529 12.0944 14.3817L12.4452 14.1767C12.5669 14.1055 12.6726 14.0137 12.7622 13.9011L13.0206 13.5767C13.1102 13.4642 13.2219 13.3812 13.3557 13.3279L13.7413 13.1741C13.875 13.1208 13.9943 13.0467 14.0992 12.952L14.4014 12.6789C14.5062 12.5842 14.6166 12.4969 14.7326 12.417L15.0669 12.1867C15.1829 12.1068 15.3052 12.0385 15.4338 11.9818L15.8044 11.8184C15.9329 11.7618 16.0641 11.7124 16.198 11.6705L16.5837 11.5495C16.7175 11.5075 16.8419 11.4325 16.9569 11.3244L17.2884 11.0129C17.4034 10.9048 17.5365 10.8618 17.6877 10.884L18.1236 10.9478C18.2748 10.9699 18.4207 10.9806 18.5614 10.9799L18.9669 10.9778C19.1076 10.9771 19.2466 10.9862 19.3839 11.0051L19.7798 11.0597C19.9171 11.0786 19.9858 11.0623 19.9858 11.0108V10.8621C19.9858 10.8105 20.0585 10.763 20.2039 10.7194L20.6231 10.5938ZM21.7991 15.7012C21.8535 15.5834 21.8908 15.4629 21.9109 15.3396L21.9713 14.9697C21.9914 14.8464 22.0088 14.7848 22.0109 14.7848C22.013 14.7848 22.0005 14.7399 21.9732 14.6501L21.8916 14.3807C21.8643 14.2909 21.8234 14.1929 21.7687 14.0866L21.6046 13.7676C21.5499 13.6613 21.4687 13.5838 21.3611 13.535L21.0381 13.3887C20.9304 13.3399 20.8297 13.2791 20.7359 13.2064L20.4545 12.9882C20.3608 12.9155 20.2507 12.8661 20.1245 12.8399L19.7457 12.7614C19.6194 12.7352 19.506 12.7629 19.4056 12.8444L19.1041 13.0888C19.0037 13.1703 18.9021 13.2456 18.7995 13.3148L18.4918 13.5225C18.3892 13.5918 18.3353 13.6893 18.33 13.8152L18.3144 14.1929C18.3091 14.3188 18.2667 14.4411 18.187 14.56L17.9479 14.9164C17.8683 15.0352 17.8736 15.146 17.9639 15.2488L18.2348 15.5572C18.3251 15.66 18.4009 15.7647 18.4621 15.8713L18.6456 16.191C18.7067 16.2975 18.7978 16.3632 18.9188 16.388L19.2817 16.4623C19.4027 16.4871 19.5185 16.5033 19.6291 16.511L19.9609 16.5341C20.0715 16.5418 20.1911 16.5553 20.3197 16.5747L20.7057 16.6329C20.8343 16.6523 20.9533 16.6261 21.0626 16.5543L21.3904 16.339C21.4997 16.2673 21.5815 16.1725 21.6359 16.0547L21.7991 15.7012Z" stroke="black"/>
</g>
<defs>
<filter id="filter0_d_4221_64" x="0.376953" y="0.0395508" width="34.959" height="31.4062" filterUnits="userSpaceOnUse" color-interpolation-filters="sRGB">
<feFlood flood-opacity="0" result="BackgroundImageFix"/>
<feColorMatrix in="SourceAlpha" type="matrix" values="0 0 0 0 0 0 0 0 0 0 0 0 0 0 0 0 0 0 127 0" result="hardAlpha"/>
<feOffset dx="2" dy="2"/>
<feComposite in2="hardAlpha" operator="out"/>
<feColorMatrix type="matrix" values="0 0 0 0 0 0 0 0 0 0 0 0 0 0 0 0 0 0 1 0"/>
<feBlend mode="normal" in2="BackgroundImageFix" result="effect1_dropShadow_4221_64"/>
<feBlend mode="normal" in="SourceGraphic" in2="effect1_dropShadow_4221_64" result="shape"/>
</filter>
</defs>
</svg>
