<?xml version="1.0" standalone="no"?>
<!DOCTYPE svg PUBLIC "-//W3C//DTD SVG 20010904//EN"
 "http://www.w3.org/TR/2001/REC-SVG-20010904/DTD/svg10.dtd">
<svg version="1.0" xmlns="http://www.w3.org/2000/svg"
 width="1024.000000pt" height="1024.000000pt" viewBox="0 0 1024.000000 1024.000000"
 preserveAspectRatio="xMidYMid meet">

<g transform="translate(0.000000,1024.000000) scale(0.100000,-0.100000)"
fill="#14fd3b" stroke="none">
<path d="M4700 8653 c-89 -8 -237 -36 -293 -55 -107 -35 -247 -113 -320 -179
-118 -106 -169 -184 -321 -484 -53 -104 -125 -243 -160 -307 -35 -65 -61 -118
-58 -119 4 0 59 0 122 1 179 1 292 -24 516 -114 231 -92 463 -102 658 -27 l49
18 -99 65 c-298 196 -476 253 -766 247 -86 -2 -154 -1 -150 3 20 19 173 93
292 141 332 135 643 200 845 177 137 -15 179 -32 380 -158 166 -104 243 -136
309 -127 45 6 135 25 144 31 2 2 -19 30 -47 64 -51 61 -81 109 -81 130 0 23
193 -27 370 -97 100 -39 312 -142 332 -161 4 -4 -73 -7 -170 -7 -200 0 -296
-15 -422 -68 -150 -62 -421 -230 -402 -249 5 -5 53 -20 108 -34 89 -23 112
-25 229 -20 149 6 208 20 410 96 188 71 296 92 447 88 65 -2 118 -2 118 -1 0
16 -367 708 -403 761 -126 183 -329 312 -572 361 -106 21 -325 39 -325 26 0
-26 187 -225 275 -292 70 -53 204 -111 523 -228 33 -12 40 -23 109 -182 7 -18
-1 -16 -55 11 -26 13 -101 45 -166 70 -676 265 -1350 249 -2071 -49 -49 -20
-96 -42 -103 -48 -25 -20 -20 0 22 89 49 103 40 97 255 174 243 87 323 131
439 244 71 68 182 196 182 210 0 6 -84 6 -150 -1z"/>
<path d="M5053 8598 c-63 -43 -281 -245 -271 -253 2 -1 66 4 143 12 135 14
399 12 535 -3 l55 -6 -50 52 c-87 90 -292 250 -321 250 -7 0 -48 -23 -91 -52z"/>
<path d="M3765 8396 c-123 -40 -266 -123 -362 -210 -61 -55 -141 -160 -178
-234 -24 -49 -57 -142 -50 -142 2 0 60 36 128 80 71 46 134 80 148 80 55 0 92
-87 52 -122 -10 -9 -80 -57 -156 -108 -219 -147 -322 -253 -534 -550 -153
-215 -251 -363 -279 -424 -24 -51 -31 -86 -16 -86 4 0 76 56 161 124 172 138
241 183 351 225 173 67 365 80 610 42 199 -31 305 -26 450 21 66 21 180 77
180 89 0 14 -185 101 -282 134 -131 43 -251 59 -398 52 -118 -5 -235 -34 -324
-79 -42 -21 -41 -19 10 52 59 83 259 443 374 675 168 339 199 405 192 405 -4
-1 -38 -11 -77 -24z"/>
<path d="M6440 8415 c0 -24 400 -796 489 -944 61 -102 111 -185 111 -186 0 -1
-37 13 -82 31 -101 40 -181 54 -314 54 -136 0 -256 -22 -378 -70 -107 -42
-218 -100 -223 -116 -5 -14 91 -70 158 -93 122 -42 254 -50 409 -26 200 31
290 37 400 25 223 -24 390 -108 650 -329 52 -44 98 -81 103 -81 18 0 4 65 -29
127 -48 92 -110 182 -279 408 -230 308 -303 381 -546 545 -93 63 -148 107
-152 121 -13 50 31 96 83 86 26 -6 207 -113 243 -145 28 -25 31 -6 10 53 -83
224 -275 409 -521 500 -109 41 -132 48 -132 40z"/>
<path d="M2989 7977 c-267 -152 -463 -395 -514 -637 -21 -99 -18 -350 4 -350
11 0 375 488 433 581 34 54 66 122 86 185 30 92 72 256 68 261 -1 2 -36 -17
-77 -40z"/>
<path d="M7210 8009 c0 -7 16 -67 35 -133 60 -203 111 -294 329 -584 106 -141
199 -267 207 -279 8 -13 17 -23 20 -23 25 0 28 264 5 363 -57 244 -254 477
-538 637 -36 20 -58 27 -58 19z"/>
<path d="M4722 7859 c-70 -9 -149 -30 -211 -56 l-41 -18 77 -35 c43 -19 137
-67 208 -107 175 -97 253 -124 380 -131 119 -5 191 10 309 66 l80 38 -125 74
c-68 40 -137 81 -154 91 -124 73 -329 104 -523 78z"/>
<path d="M7975 7194 c-3 -44 -21 -162 -38 -264 -28 -159 -32 -208 -32 -352 l1
-167 -43 40 c-82 75 -207 142 -334 176 -91 25 -386 25 -479 0 -95 -26 -160
-50 -160 -59 0 -16 109 -93 185 -130 98 -47 168 -68 358 -108 177 -37 287 -75
392 -137 74 -43 191 -147 228 -202 9 -14 19 -23 21 -20 8 7 115 372 132 446
21 95 30 308 15 385 -28 146 -89 287 -167 385 -77 95 -71 95 -79 7z"/>
<path d="M2231 7193 c-70 -94 -105 -163 -136 -268 -74 -255 -46 -491 111 -954
3 -9 14 0 33 25 41 58 151 156 218 197 95 58 196 93 408 140 212 48 330 87
410 138 57 36 125 91 125 101 0 13 -161 59 -245 70 -114 15 -322 5 -413 -21
-94 -27 -190 -76 -271 -137 -35 -27 -71 -54 -80 -61 -15 -11 -16 5 -16 170 -1
158 -5 205 -32 362 -18 99 -35 208 -39 243 -4 34 -10 62 -14 62 -5 0 -31 -30
-59 -67z"/>
<path d="M3247 6940 c-82 -13 -217 -62 -283 -101 l-55 -34 118 -6 c116 -7 241
-25 376 -56 l69 -15 62 31 c60 31 176 116 176 129 0 4 -44 18 -97 30 -109 26
-275 36 -366 22z"/>
<path d="M6777 6940 c-27 -5 -81 -18 -120 -30 l-72 -22 61 -57 c34 -31 82 -67
107 -80 l45 -25 129 27 c154 32 272 47 371 47 47 0 71 4 67 10 -9 15 -130 74
-201 98 -115 40 -267 52 -387 32z"/>
<path d="M8358 6463 c-10 -48 -42 -171 -73 -273 -76 -249 -100 -350 -125 -515
-12 -77 -25 -153 -30 -170 -8 -29 -8 -30 -9 -4 -2 40 -47 171 -85 247 -113
225 -300 367 -559 427 -85 20 -278 47 -285 40 -3 -2 19 -42 49 -87 93 -144
198 -241 424 -396 177 -120 322 -278 402 -435 37 -74 93 -236 93 -269 0 -37
23 -12 99 112 43 69 110 176 149 239 123 195 165 334 164 546 0 135 -14 227
-53 346 -25 75 -93 216 -123 253 l-21 27 -17 -88z"/>
<path d="M1850 6464 c-104 -181 -146 -358 -137 -569 11 -231 52 -338 259 -671
162 -261 142 -241 162 -158 68 276 235 502 503 683 149 99 258 186 314 249 51
57 153 211 145 219 -8 8 -225 -25 -314 -48 -306 -80 -490 -263 -596 -591 l-32
-100 -13 94 c-22 158 -50 286 -103 468 -28 96 -70 246 -92 332 -23 86 -44 159
-47 162 -3 3 -25 -28 -49 -70z"/>
<path d="M2812 5680 c-123 -67 -193 -119 -293 -219 -136 -136 -206 -263 -260
-467 -22 -82 -24 -109 -24 -337 l0 -247 -42 87 c-23 49 -76 158 -117 243 -41
85 -107 211 -146 280 -117 203 -344 560 -351 552 -13 -14 -30 -130 -36 -237
-11 -203 26 -400 108 -574 68 -145 136 -235 295 -391 201 -196 462 -434 481
-438 8 -2 13 0 9 6 -11 18 14 219 35 289 30 95 70 173 149 284 82 115 133 205
160 285 20 57 45 258 34 276 -7 11 -109 -61 -190 -135 -79 -73 -141 -152 -194
-248 l-40 -74 0 161 0 161 83 66 c179 141 305 300 367 459 26 68 57 223 49
247 -2 6 -37 -7 -77 -29z"/>
<path d="M7403 5643 c12 -140 96 -318 219 -462 67 -80 230 -220 256 -221 9 0
12 -41 12 -172 l0 -173 -42 85 c-32 63 -63 107 -123 169 -75 78 -225 201 -246
201 -14 0 -10 -116 6 -195 20 -94 67 -190 164 -332 136 -201 186 -334 198
-525 3 -54 8 -98 10 -98 7 0 287 264 466 440 171 169 237 251 300 375 98 197
137 459 107 715 -16 135 -24 153 -45 110 -9 -18 -55 -91 -180 -285 -168 -261
-263 -437 -380 -705 -37 -85 -68 -156 -69 -157 -1 -1 -1 105 -1 235 0 212 -2
246 -22 324 -53 209 -142 367 -275 494 -75 71 -222 175 -311 221 l-50 25 6
-69z"/>
<path d="M2804 4507 c-100 -104 -171 -230 -205 -367 -19 -74 -21 -103 -16
-250 3 -120 10 -185 25 -240 11 -41 19 -76 18 -77 0 0 -68 55 -151 124 -313
260 -686 607 -820 762 -38 45 -73 81 -76 81 -3 0 -4 -24 -2 -52 27 -390 232
-716 550 -877 35 -17 154 -62 265 -100 112 -38 239 -85 284 -103 l80 -35 -4
132 c-5 156 8 236 67 401 53 148 71 242 71 368 0 96 -22 251 -39 268 -4 5 -25
-11 -47 -35z"/>
<path d="M7422 4503 c-6 -21 -16 -78 -22 -127 -18 -143 5 -292 71 -476 62
-173 84 -351 59 -480 -4 -25 -7 -46 -6 -48 2 -1 43 16 92 39 49 22 174 70 279
106 219 74 353 140 447 218 200 165 331 425 357 711 4 49 7 91 5 93 -2 2 -36
-32 -76 -75 -105 -114 -454 -450 -658 -635 -153 -138 -320 -277 -320 -266 0 3
7 24 16 48 43 121 58 377 29 511 -16 78 -77 212 -126 279 -48 66 -115 139
-126 139 -5 0 -15 -17 -21 -37z"/>
<path d="M2986 3928 c-78 -175 -104 -321 -87 -488 10 -95 49 -228 92 -312 11
-21 19 -40 19 -44 0 -3 -21 7 -47 22 -169 99 -415 204 -688 294 -152 50 -375
140 -403 163 -24 19 -20 1 17 -78 103 -215 281 -392 473 -470 127 -52 208 -65
468 -75 210 -9 330 -20 398 -37 21 -5 22 -3 12 23 -46 119 -52 167 -60 429 -6
215 -11 276 -29 351 -21 88 -105 276 -126 281 -6 2 -23 -25 -39 -59z"/>
<path d="M7216 3928 c-91 -164 -110 -260 -108 -538 2 -232 -6 -306 -43 -415
-13 -38 -22 -71 -22 -71 1 -1 43 5 92 12 50 8 191 19 315 24 328 14 461 47
625 156 65 43 175 154 232 235 50 71 116 203 111 223 -2 10 -38 -3 -120 -40
-65 -30 -211 -85 -325 -123 -192 -64 -238 -82 -393 -154 -68 -31 -244 -126
-284 -152 l-28 -19 30 55 c76 135 114 342 93 503 -19 137 -100 366 -131 366
-5 0 -25 -28 -44 -62z"/>
<path d="M3324 3463 c-11 -108 2 -337 26 -433 22 -91 101 -266 145 -325 15
-19 26 -35 24 -35 -2 0 -27 9 -55 19 -71 27 -241 68 -359 86 -90 14 -693 40
-703 30 -2 -2 40 -48 95 -102 111 -112 190 -158 328 -194 142 -36 250 -36 505
1 184 26 247 32 347 28 l122 -4 -18 31 c-44 71 -76 171 -111 345 -57 279 -107
391 -240 534 -93 99 -97 100 -106 19z"/>
<path d="M6899 3487 c-31 -26 -78 -75 -104 -109 -91 -121 -130 -224 -169 -443
-14 -77 -34 -165 -44 -195 -15 -43 -72 -172 -89 -200 -2 -3 68 -6 155 -6 112
-1 211 -9 347 -29 150 -22 211 -26 290 -22 181 11 324 63 451 165 53 43 153
158 143 165 -2 2 -56 0 -119 -4 -63 -4 -172 -8 -241 -8 -238 -2 -431 -31 -637
-96 -63 -20 -116 -35 -118 -33 -2 2 13 26 33 54 50 69 118 215 143 309 25 90
37 333 23 439 l-8 59 -56 -46z"/>
<path d="M3812 2928 c24 -181 131 -394 277 -552 23 -25 29 -37 18 -32 -10 3
-73 16 -140 28 -179 33 -426 31 -631 -6 -81 -15 -206 -32 -278 -38 l-129 -12
43 -43 c55 -57 161 -128 238 -159 99 -40 186 -56 306 -55 131 0 233 21 428 88
152 52 261 77 408 94 74 8 106 15 101 23 -3 6 -25 38 -48 71 -23 33 -72 114
-110 180 -115 202 -170 275 -266 350 -48 38 -203 125 -222 125 -2 0 0 -28 5
-62z"/>
<path d="M6381 2944 c-72 -35 -111 -64 -166 -118 -84 -83 -119 -134 -244 -351
-51 -88 -103 -174 -117 -192 l-24 -31 73 -7 c151 -13 296 -45 448 -99 214 -75
294 -90 449 -83 130 5 223 28 323 78 66 34 170 106 206 143 l33 34 -43 6 c-24
3 -80 7 -124 10 -44 3 -152 17 -240 32 -219 38 -462 40 -638 5 -65 -13 -121
-21 -124 -17 -3 3 14 27 38 53 121 129 211 313 239 484 7 42 11 82 8 89 -2 7
-37 -6 -97 -36z"/>
<path d="M4230 2911 c0 -5 4 -12 9 -15 9 -6 87 -143 215 -376 82 -148 138
-220 277 -354 l121 -117 56 53 c32 29 85 84 119 122 l62 70 -22 27 c-227 277
-293 345 -412 424 -96 64 -229 125 -326 150 -35 9 -72 18 -81 21 -10 3 -18 1
-18 -5z"/>
<path d="M5989 2905 c-132 -36 -289 -114 -396 -196 -120 -93 -203 -197 -385
-481 -97 -153 -253 -306 -421 -412 -89 -57 -250 -132 -375 -175 -62 -21 -115
-41 -118 -44 -2 -2 29 -10 71 -17 92 -16 264 -8 355 16 243 63 507 239 800
534 189 189 240 257 376 500 53 96 112 197 131 225 48 72 46 74 -38 50z"/>
<path d="M5064 2553 c8 -16 32 -47 53 -71 l38 -43 43 56 c67 88 69 85 -47 85
l-102 0 15 -27z"/>
<path d="M4267 2085 c-116 -19 -179 -37 -372 -105 -88 -32 -193 -65 -232 -76
-40 -10 -73 -21 -73 -25 0 -11 75 -51 151 -81 201 -81 469 -77 691 10 73 28
239 115 283 148 19 14 17 17 -41 74 l-60 60 -129 5 c-87 3 -160 0 -218 -10z"/>
<path d="M5719 2093 c-43 -4 -52 -10 -108 -68 l-60 -64 89 -51 c126 -72 224
-116 321 -142 113 -31 365 -33 474 -4 78 20 202 69 254 100 l34 20 -109 27
c-60 15 -161 46 -224 69 -283 102 -450 130 -671 113z"/>
<path d="M5432 1838 c-5 -7 -49 -40 -96 -73 -47 -33 -86 -63 -86 -66 0 -11
166 -77 249 -100 99 -27 313 -37 417 -19 40 7 74 16 74 19 0 3 -53 23 -118 44
-138 44 -256 98 -341 156 -75 51 -85 55 -99 39z"/>
</g>
</svg>
